<?xml version="1.0" standalone="no"?>
<!DOCTYPE svg PUBLIC "-//W3C//DTD SVG 20010904//EN"
 "http://www.w3.org/TR/2001/REC-SVG-20010904/DTD/svg10.dtd">
<svg version="1.0" xmlns="http://www.w3.org/2000/svg"
 width="800.000000pt" height="800.000000pt" viewBox="0 0 800.000000 800.000000"
 preserveAspectRatio="xMidYMid meet">
<metadata>
Created by potrace 1.14, written by Peter Selinger 2001-2017
</metadata>
<g transform="translate(0.000000,800.000000) scale(0.100000,-0.100000)"
fill="#000000" stroke="none">
<path d="M3750 7937 c-3 -2 -43 -7 -90 -11 -84 -6 -221 -21 -270 -31 -14 -2
-41 -6 -60 -9 -200 -29 -648 -155 -804 -226 -23 -10 -70 -31 -106 -45 -157
-65 -457 -229 -620 -339 -226 -153 -403 -299 -601 -498 -94 -95 -129 -132
-234 -253 -14 -16 -59 -73 -99 -125 -454 -592 -717 -1257 -802 -2030 -10 -94
-13 -600 -4 -695 17 -168 19 -190 24 -220 3 -16 10 -61 16 -100 152 -944 661
-1819 1412 -2428 270 -218 632 -438 908 -552 36 -14 84 -35 106 -45 120 -55
451 -154 664 -199 272 -58 470 -76 815 -76 266 0 388 7 534 31 19 3 53 8 75
10 136 16 431 89 631 155 1069 356 1940 1161 2385 2203 138 323 235 691 287
1084 18 140 25 659 10 810 -13 130 -17 166 -22 188 -2 11 -7 43 -10 70 -17
144 -88 434 -156 639 -360 1080 -1174 1954 -2231 2396 -301 125 -667 225 -973
263 -66 9 -140 18 -165 21 -55 8 -613 18 -620 12z"/>
</g>
</svg>
