<?xml version="1.0" encoding="UTF-8"?>
<!-- Generated by Pixelmator Pro 3.3.2 -->
<svg width="800" height="800" viewBox="0 0 800 800" xmlns="http://www.w3.org/2000/svg" xmlns:xlink="http://www.w3.org/1999/xlink">
    <g id="TS">
        <linearGradient id="linearGradient1" x1="108" y1="400" x2="692" y2="400" gradientUnits="userSpaceOnUse">
            <stop offset="0" stop-color="#465be5" stop-opacity="1"/>
            <stop offset="1" stop-color="#cd00be" stop-opacity="1"/>
        </linearGradient>
        <path id="path1" fill="#3178c6" fill-rule="evenodd" stroke="url(#linearGradient1)" stroke-width="24" d="M 692 400 C 692 238.732849 561.267151 108 400 108 C 238.732849 108 108 238.732849 108 400 C 108 561.267151 238.732849 692 400 692 C 561.267151 692 692 561.267151 692 400 Z"/>
        <text id="text1" xml:space="preserve" x="214" y="496" font-family="Arial" font-size="288" font-weight="700" fill="#ffffff">TS</text>
        <linearGradient id="linearGradient2" x1="108" y1="400" x2="692" y2="400" gradientUnits="userSpaceOnUse">
            <stop offset="0" stop-color="#465be5" stop-opacity="1"/>
            <stop offset="1" stop-color="#cd00be" stop-opacity="1"/>
        </linearGradient>
        <path id="Ellipse-copy" fill="none" stroke="url(#linearGradient2)" stroke-width="24" d="M 692 400 C 692 238.732849 561.267151 108 400 108 C 238.732849 108 108 238.732849 108 400 C 108 561.267151 238.732849 692 400 692 C 561.267151 692 692 561.267151 692 400 Z"/>
    </g>
</svg>
